<svg aria-hidden="true" style="position:absolute;width:0;height:0" xmlns="http://www.w3.org/2000/svg" overflow="hidden"><defs><symbol id="icon-vk" viewBox="0 0 53 32"><path fill="var(--color1, #436eab)" d="M45.902 20.1c1.767 1.728 3.636 3.353 5.221 5.253.702.846 1.365 1.717 1.872 2.699.72 1.394.069 2.928-1.182 3.012l-7.769-.004c-2.004.165-3.602-.64-4.948-2.011-1.076-1.097-2.071-2.263-3.106-3.396a7.426 7.426 0 00-1.373-1.227l-.025-.016c-1.061-.688-1.982-.478-2.588.629-.617 1.124-.757 2.37-.818 3.625-.084 1.829-.636 2.311-2.475 2.393-3.927.187-7.655-.409-11.116-2.389-3.054-1.748-5.422-4.213-7.481-7.004C6.102 16.228 3.03 10.256.269 4.116-.353 2.731.102 1.99 1.627 1.963c2.535-.05 5.07-.046 7.607-.004 1.031.014 1.712.604 2.11 1.579 1.371 3.372 3.049 6.58 5.156 9.554.56.791 1.132 1.582 1.947 2.14.901.617 1.588.412 2.011-.59.27-.636.388-1.323.448-2.004.201-2.347.228-4.686-.124-7.022-.217-1.46-1.038-2.404-2.492-2.681-.743-.14-.633-.416-.274-.841.624-.729 1.212-1.186 2.382-1.186h8.782c1.381.274 1.689.894 1.879 2.284l.007 9.755c-.016.539.268 2.137 1.239 2.492.775.254 1.287-.366 1.753-.859 2.103-2.231 3.604-4.869 4.942-7.6.596-1.2 1.108-2.448 1.604-3.692.368-.924.942-1.38 1.986-1.36l8.45.007c.252 0 .505.004.747.046 1.426.242 1.815.853 1.376 2.245-.693 2.181-2.041 4-3.36 5.826-1.41 1.95-2.916 3.835-4.315 5.796-1.284 1.792-1.182 2.695.412 4.251z"/></symbol></defs></svg>